<svg xmlns="http://www.w3.org/2000/svg" xmlns:xlink="http://www.w3.org/1999/xlink" width="119" height="119" viewBox="0 0 119 119">
  <defs>
    <clipPath id="clip-Bell_3">
      <rect width="119" height="119"/>
    </clipPath>
  </defs>
  <g id="Bell_3" data-name="Bell 3" clip-path="url(#clip-Bell_3)">
    <g id="Union_36" data-name="Union 36" transform="matrix(0.921, 0.391, -0.391, 0.921, 40.048, 7.851)" fill="none">
      <path d="M0,79.292,4.3,40.606A26.183,26.183,0,0,1,2.111,30.14C2.11,13.495,17.927,0,37.436,0S72.76,13.495,72.76,30.14a26.088,26.088,0,0,1-1.582,8.947l4.524,40.2Z" stroke="none"/>
      <path d="M 64.51334381103516 69.29181671142578 L 61.24062728881836 40.20532608032227 L 60.97826766967773 37.87350463867188 L 61.7805061340332 35.66838455200195 C 62.43064880371094 33.88128662109375 62.76030731201172 32.02142715454102 62.76030731201172 30.14050483703613 C 62.76024627685547 19.0350456237793 51.3996467590332 10.00006580352783 37.43568801879883 10.0000057220459 C 30.37806701660156 10.0000057220459 23.81248664855957 12.28556537628174 18.94838714599609 16.4356861114502 C 14.53888702392578 20.19790458679199 12.11048698425293 25.06488609313965 12.11050701141357 30.1400260925293 C 12.11052703857422 32.36162567138672 12.56858730316162 34.5434455871582 13.47200679779053 36.62484359741211 L 14.53152751922607 39.06594467163086 L 14.23762702941895 41.71078491210938 L 11.17277526855469 69.29157257080078 L 64.51334381103516 69.29181671142578 M 75.70162963867188 79.29186248779297 L 7.189941243268549e-06 79.29152679443359 L 4.298807144165039 40.60636520385742 C 2.883827209472656 37.3463249206543 2.110527276992798 33.81986618041992 2.110507249832153 30.14008522033691 C 2.110427141189575 13.49558162689209 17.9281120300293 5.467529263114557e-06 37.43569183349609 5.467529263114557e-06 C 37.43688201904297 5.467529263114557e-06 37.43471527099609 5.461425644170959e-06 37.43590545654297 5.467529263114557e-06 C 56.94510650634766 8.546753088012338e-05 72.76020812988281 13.49490547180176 72.76030731201172 30.14044570922852 C 72.76030731201172 33.25538635253906 72.20614624023438 36.26090621948242 71.17792510986328 39.08720397949219 L 75.70162963867188 79.29186248779297 Z" stroke="none" fill="#a200ff"/>
    </g>
    <g id="Rectangle_160" data-name="Rectangle 160" transform="matrix(0.921, 0.391, -0.391, 0.921, 71.631, 8.157)" fill="none" stroke="#a200ff" stroke-width="7">
      <rect width="17.687" height="17.852" stroke="none"/>
      <rect x="3.5" y="3.5" width="10.687" height="10.852" fill="none"/>
    </g>
    <g id="Ellipse_74" data-name="Ellipse 74" transform="matrix(0.391, -0.921, 0.921, 0.391, 29.432, 100.923)" fill="none" stroke="#a200ff" stroke-width="5">
      <ellipse cx="7.699" cy="11.768" rx="7.699" ry="11.768" stroke="none"/>
      <ellipse cx="7.699" cy="11.768" rx="5.199" ry="9.268" fill="none"/>
    </g>
  </g>
</svg>
