<svg xmlns="http://www.w3.org/2000/svg" xmlns:xlink="http://www.w3.org/1999/xlink" width="119" height="119" viewBox="0 0 119 119">
  <defs>
    <clipPath id="clip-Artboard_4">
      <rect width="119" height="119"/>
    </clipPath>
  </defs>
  <g id="Artboard_4" data-name="Artboard – 4" clip-path="url(#clip-Artboard_4)">
    <g id="Union_36" data-name="Union 36" transform="matrix(0.921, 0.391, -0.391, 0.921, 40.048, 7.851)" fill="none">
      <path d="M0,79.292,4.3,40.606A26.183,26.183,0,0,1,2.111,30.14C2.11,13.495,17.927,0,37.436,0S72.76,13.495,72.76,30.14a26.088,26.088,0,0,1-1.582,8.947l4.524,40.2Z" stroke="none"/>
      <path d="M 70.10748291015625 74.29184722900391 L 66.20928192138672 39.64627075195312 L 66.07810211181641 38.4803466796875 L 66.47922515869141 37.37777709960938 C 67.32929992675781 35.04119491577148 67.76031494140625 32.60620880126953 67.76031494140625 30.14047050476074 C 67.76028442382812 23.57720947265625 64.70900726318359 17.35916328430176 59.1685905456543 12.63174724578857 C 56.38376235961914 10.2555627822876 53.12686920166016 8.384916305541992 49.48840713500977 7.071777820587158 C 45.67932891845703 5.697070121765137 41.624267578125 5.00002384185791 37.43569946289062 4.999993324279785 C 33.24773025512695 4.999993324279785 29.19288444519043 5.697054862976074 25.38377571105957 7.071808338165283 C 21.7452220916748 8.385024070739746 18.48816108703613 10.25574684143066 15.70306873321533 12.63200855255127 C 10.16203784942627 17.35967063903809 7.11048412322998 23.57750129699707 7.110515117645264 30.14008522033691 C 7.110530376434326 33.05060958862305 7.70768404006958 35.90219497680664 8.885407447814941 38.61563873291016 L 9.415176391601562 39.83617782592773 L 9.268222808837891 41.15859222412109 L 5.586384296417236 74.29154205322266 L 70.10748291015625 74.29184722900391 M 75.70162200927734 79.2918701171875 L -8.19467368273763e-06 79.29151916503906 L 4.298807144165039 40.60637664794922 C 2.883837938308716 37.34633255004883 2.110530376434326 33.81986999511719 2.110514879226685 30.14010047912598 C 2.110437870025635 13.49557876586914 17.92812538146973 -6.840163223387208e-06 37.43569946289062 -6.840163223387208e-06 C 37.4368896484375 -6.840163223387208e-06 37.43470764160156 -6.84579708831734e-06 37.43589782714844 -6.840163223387208e-06 C 56.94509887695312 0.0001008521430776455 72.76022338867188 13.49490070343018 72.76031494140625 30.14043998718262 C 72.76031494140625 33.25539398193359 72.20616149902344 36.26091766357422 71.17793273925781 39.08720779418945 L 75.70162200927734 79.2918701171875 Z" stroke="none" fill="#00b7fa"/>
    </g>
    <g id="Rectangle_160" data-name="Rectangle 160" transform="matrix(0.921, 0.391, -0.391, 0.921, 71.631, 8.157)" fill="none" stroke="#00b7fa" stroke-width="5">
      <rect width="17.687" height="17.852" stroke="none"/>
      <rect x="2.5" y="2.5" width="12.687" height="12.852" fill="none"/>
    </g>
    <g id="Ellipse_74" data-name="Ellipse 74" transform="matrix(0.391, -0.921, 0.921, 0.391, 29.432, 100.923)" fill="none" stroke="#00b7fa" stroke-width="5">
      <ellipse cx="7.699" cy="11.768" rx="7.699" ry="11.768" stroke="none"/>
      <ellipse cx="7.699" cy="11.768" rx="5.199" ry="9.268" fill="none"/>
    </g>
  </g>
</svg>
