<svg xmlns="http://www.w3.org/2000/svg" xmlns:xlink="http://www.w3.org/1999/xlink" width="119" height="119" viewBox="0 0 119 119">
  <defs>
    <clipPath id="clip-Bell_3">
      <rect width="119" height="119"/>
    </clipPath>
  </defs>
  <g id="Bell_3" data-name="Bell 3" clip-path="url(#clip-Bell_3)">
    <g id="Union_36" data-name="Union 36" transform="matrix(0.921, 0.391, -0.391, 0.921, 40.048, 7.851)" fill="#a200ff">
      <path d="M 71.78572845458984 75.79185485839844 L 3.910463571548462 75.79154205322266 L 7.777393817901611 40.99292373657227 L 7.880260467529297 40.06724548339844 L 7.509433746337891 39.21286010742188 C 6.249407291412354 36.30981826782227 5.610527038574219 33.25729751586914 5.610513687133789 30.14008522033691 C 5.610500335693359 26.61568641662598 6.422033786773682 23.1917781829834 8.022566795349121 19.96345901489258 C 9.590554237365723 16.80077934265137 11.84708690643311 13.95020580291748 14.72947406768799 11.49091243743896 C 17.65235328674316 8.997085571289062 21.06566047668457 7.035592079162598 24.87458038330078 5.660898685455322 C 28.84745979309082 4.2270188331604 33.07363510131836 3.49999213218689 37.43572616577148 3.49999213218689 L 37.43588638305664 3.49999213218689 C 54.98384857177734 3.500085353851318 69.26023101806641 15.45095252990723 69.26031494140625 30.14045906066895 C 69.26031494140625 32.78162002563477 68.79887390136719 35.38915252685547 67.88883209228516 37.89060592651367 L 67.60804748535156 38.66240692138672 L 67.69987487792969 39.47853851318359 L 71.78572845458984 75.79185485839844 Z" stroke="none"/>
      <path d="M 67.86983489990234 72.29183197021484 L 64.22182464599609 39.8698844909668 L 64.03816986083984 38.23763275146484 L 64.5997314453125 36.69403076171875 C 65.36984252929688 34.57723236083984 65.76031494140625 32.37228393554688 65.76031494140625 30.1404857635498 C 65.76024627685547 17.38084983825684 53.05386352539062 7.000067234039307 37.43569946289062 6.99999475479126 C 29.6649341583252 6.99999475479126 22.40780639648438 9.540485382080078 17.00118827819824 14.15348529815674 C 11.91277122497559 18.49497604370117 9.110480308532715 24.17244911193848 9.110516548156738 30.14006805419922 C 9.11053466796875 32.77503204345703 9.652061462402344 35.35872268676758 10.72004318237305 37.81932067871094 L 11.4617166519165 39.52808380126953 L 11.25598907470703 41.37948608398438 L 7.820940017700195 72.29155731201172 L 67.86983489990234 72.29183197021484 M 75.70162200927734 79.2918701171875 L -1.099187647923827e-05 79.29151916503906 L 4.298807144165039 40.60637664794922 C 2.883825302124023 37.34632110595703 2.110534429550171 33.81986618041992 2.110516309738159 30.14010429382324 C 2.110425472259521 13.49557399749756 17.92812347412109 -5.441561825136887e-06 37.43569946289062 -5.441561825136887e-06 C 37.43689346313477 -5.441561825136887e-06 37.43470764160156 -5.447110197565053e-06 37.43589782714844 -5.441561825136887e-06 C 56.94509887695312 8.546753088012338e-05 72.76022338867188 13.49490356445312 72.76031494140625 30.14044952392578 C 72.76031494140625 33.25539398193359 72.20615386962891 36.26092147827148 71.17793273925781 39.08721160888672 L 75.70162200927734 79.2918701171875 Z" stroke="none" fill="#a200ff"/>
    </g>
    <g id="Rectangle_160" data-name="Rectangle 160" transform="matrix(0.921, 0.391, -0.391, 0.921, 71.631, 8.157)" fill="none" stroke="#a200ff" stroke-width="7">
      <rect width="17.687" height="17.852" stroke="none"/>
      <rect x="3.5" y="3.5" width="10.687" height="10.852" fill="none"/>
    </g>
    <g id="Ellipse_74" data-name="Ellipse 74" transform="matrix(0.391, -0.921, 0.921, 0.391, 29.432, 100.923)" fill="none" stroke="#a200ff" stroke-width="5">
      <ellipse cx="7.699" cy="11.768" rx="7.699" ry="11.768" stroke="none"/>
      <ellipse cx="7.699" cy="11.768" rx="5.199" ry="9.268" fill="none"/>
    </g>
  </g>
</svg>
