<svg xmlns="http://www.w3.org/2000/svg" xmlns:xlink="http://www.w3.org/1999/xlink" width="119" height="119" viewBox="0 0 119 119">
  <defs>
    <clipPath id="clip-comment">
      <rect width="119" height="119"/>
    </clipPath>
  </defs>
  <g id="comment" clip-path="url(#clip-comment)">
    <g id="Union_161" data-name="Union 161" transform="translate(10.629 18.707)" fill="none">
      <path d="M20.977,44.388a26.3,26.3,0,0,1-3.14-12.394C17.837,14.325,35.907,0,58.2,0S98.555,14.325,98.555,31.994,80.486,63.988,58.2,63.988a48.945,48.945,0,0,1-18.141-3.407L0,81.761Z" stroke="none"/>
      <path d="M 25.3365421295166 57.05209732055664 L 35.380859375 51.740966796875 L 39.47029113769531 49.57860565185547 L 43.76597213745117 51.29515075683594 C 48.17415237426758 53.05664825439453 53.16401672363281 53.98771667480469 58.19613265991211 53.98771667480469 C 74.65213012695312 53.98771667480469 88.55463409423828 43.91576385498047 88.55463409423828 31.99385452270508 C 88.55463409423828 20.07194519042969 74.65213012695312 9.999990463256836 58.19613265991211 9.999990463256836 C 41.73986053466797 9.999990463256836 27.83713150024414 20.07194519042969 27.83713150024414 31.99385452270508 C 27.83713150024414 34.63937759399414 28.50124549865723 37.23249053955078 29.8110179901123 39.70119476318359 L 32.36913299560547 44.52283096313477 L 29.69754028320312 49.28251266479492 L 25.3365421295166 57.05209732055664 M -4.949396497977432e-06 81.76121520996094 L 20.97729110717773 44.38792037963867 C 18.95485877990723 40.57596588134766 17.83713150024414 36.38853454589844 17.83713150024414 31.99385452270508 C 17.83713150024414 14.32451248168945 35.90679168701172 -9.846080502029508e-06 58.19613265991211 -9.846080502029508e-06 C 80.4864501953125 -9.846080502029508e-06 98.55463409423828 14.32451248168945 98.55463409423828 31.99385452270508 C 98.55463409423828 49.6631965637207 80.4864501953125 63.98771667480469 58.19613265991211 63.98771667480469 C 51.67126846313477 63.98771667480469 45.50947189331055 62.76067352294922 40.05529022216797 60.58119583129883 L -4.949396497977432e-06 81.76121520996094 Z" stroke="none" fill="#0bf"/>
    </g>
  </g>
</svg>
