<svg xmlns="http://www.w3.org/2000/svg" xmlns:xlink="http://www.w3.org/1999/xlink" width="119" height="119" viewBox="0 0 119 119">
  <defs>
    <clipPath id="clip-Artboard_5">
      <rect width="119" height="119"/>
    </clipPath>
  </defs>
  <g id="Artboard_5" data-name="Artboard – 5" clip-path="url(#clip-Artboard_5)">
    <g id="Union_35" data-name="Union 35" transform="translate(33 5505)" fill="#0bf">
      <path d="M 44.99993133544922 -5418.5 L 8.999991416931152 -5418.5 C 7.069841861724854 -5418.5 5.499541759490967 -5420.0703125 5.499541759490967 -5422.00048828125 L 5.499541759490967 -5448 L 5.499541759490967 -5449.9638671875 L 26.99996185302734 -5471.46435546875 L 48.50038146972656 -5449.9638671875 L 48.50038146972656 -5448 L 48.50038146972656 -5422.00048828125 C 48.50038146972656 -5420.0703125 46.93008041381836 -5418.5 44.99993133544922 -5418.5 Z" stroke="none"/>
      <path d="M 44.99993515014648 -5421 C 45.55158615112305 -5421 46.00038528442383 -5421.44873046875 46.00038528442383 -5422.00048828125 L 46.00038528442383 -5448 L 46.00038528442383 -5448.9287109375 L 26.99996185302734 -5467.9287109375 L 7.999536991119385 -5448.9287109375 L 7.999536991119385 -5448 L 7.999536991119385 -5422.00048828125 C 7.999536991119385 -5421.44873046875 8.448336601257324 -5421 8.99998664855957 -5421 L 44.99993515014648 -5421 M 44.99993515014648 -5416 L 8.99998664855957 -5416 C 5.685799121856689 -5416 2.999536752700806 -5418.68603515625 2.999536752700806 -5422.00048828125 L 2.999536752700806 -5448 L -6.469726372415607e-07 -5448 L 26.99996185302734 -5475 L 53.99992370605469 -5448 L 51.00038528442383 -5448 L 51.00038528442383 -5422.00048828125 C 51.00038528442383 -5418.68603515625 48.31412506103516 -5416 44.99993515014648 -5416 Z" stroke="none" fill="#030202"/>
    </g>
    <g id="Rectangle_159" data-name="Rectangle 159" transform="translate(51 59)" fill="#0bf" stroke="#030202" stroke-width="5">
      <rect width="18" height="30" rx="6" stroke="none"/>
      <rect x="2.5" y="2.5" width="13" height="25" rx="3.5" fill="none"/>
    </g>
  </g>
</svg>
