<svg xmlns="http://www.w3.org/2000/svg" xmlns:xlink="http://www.w3.org/1999/xlink" width="1024" height="1024" viewBox="0 0 1024 1024">
  <defs>
    <filter id="Intersection_1" x="-119.5" y="-151.5" width="1143.5" height="1258" filterUnits="userSpaceOnUse">
      <feOffset dx="-150" dy="-3" input="SourceAlpha"/>
      <feGaussianBlur stdDeviation="49.5" result="blur"/>
      <feFlood flood-color="#0bf" flood-opacity="0.161"/>
      <feComposite operator="in" in2="blur"/>
      <feComposite in="SourceGraphic"/>
    </filter>
    <clipPath id="clip-Search-bottom">
      <rect width="1024" height="1024"/>
    </clipPath>
  </defs>
  <g id="Search-bottom" clip-path="url(#clip-Search-bottom)">
    <g transform="matrix(1, 0, 0, 1, 0, 0)" filter="url(#Intersection_1)">
      <path id="Intersection_1-2" data-name="Intersection 1" d="M-3103,665a662.259,662.259,0,0,1,69.346-296H-2398a140,140,0,0,1,140,140v796.352A665.422,665.422,0,0,1-2438,1330C-2805.27,1330-3103,1032.269-3103,665Z" transform="translate(3282 -369)" fill="#0bf"/>
    </g>
    <g id="Rectangle_5" data-name="Rectangle 5" transform="matrix(0.602, 0.799, -0.799, 0.602, 534.271, 473.554)" fill="#0bf" stroke="#030202" stroke-width="50">
      <rect width="277.988" height="184.408" stroke="none"/>
      <rect x="25" y="25" width="227.988" height="134.408" fill="none"/>
    </g>
    <g id="Rectangle_6" data-name="Rectangle 6" transform="matrix(0.588, -0.809, 0.809, 0.588, 673.164, 702.899)" fill="#0bf" stroke="#030202" stroke-width="50">
      <rect width="264.226" height="176.151" stroke="none"/>
      <rect x="25" y="25" width="214.226" height="126.151" fill="none"/>
    </g>
    <g id="Path_2" data-name="Path 2" transform="translate(435.458 77.241) rotate(-3)" fill="#0bf">
      <path d="M 229.3209381103516 637.3013305664062 C 194.4694976806641 637.3013305664062 144.385498046875 595.1819458007812 98.61394500732422 527.3799438476562 C 55.27116394042969 463.1758422851562 25.00005340576172 388.0967407226562 25.00005340576172 344.8014221191406 C 25.00005340576172 254.505859375 149.0684967041016 24.99996757507324 227.2596130371094 24.99996757507324 C 299.621826171875 24.99996757507324 431.5399475097656 260.8278503417969 431.5399475097656 361.3358459472656 C 431.5398254394531 453.9584045410156 308.6508178710938 637.3012084960938 229.3209381103516 637.3013305664062 Z" stroke="none"/>
      <path d="M 227.2596740722656 49.99993896484375 C 211.5111389160156 49.99993896484375 168.3658142089844 79.9942626953125 119.6339416503906 160.4806213378906 C 74.40499877929688 235.1815795898438 49.99993896484375 311.2006225585938 49.99993896484375 344.8014221191406 C 49.99993896484375 432.3014526367188 170.6646118164062 612.30126953125 229.3208770751953 612.30126953125 C 288.9459228515625 612.3011474609375 406.539794921875 445.7726440429688 406.5399475097656 361.3358459472656 C 406.5399475097656 327.0520935058594 381.6108703613281 247.6169128417969 335.410888671875 167.9295654296875 C 283.7515258789062 78.82611083984375 240.2386169433594 49.99993896484375 227.2596740722656 49.99993896484375 M 227.2596740722656 -6.103515625e-05 C 325.3049926757812 -6.103515625e-05 456.5399475097656 260.4914245605469 456.5399475097656 361.3358459472656 C 456.539794921875 462.1799621582031 327.3663330078125 662.3011474609375 229.3210144042969 662.3013305664062 C 131.2755432128906 662.3013305664062 -6.103515625e-05 445.6455688476562 -6.103515625e-05 344.8014221191406 C -6.103515625e-05 243.9571533203125 129.21435546875 -6.103515625e-05 227.2596740722656 -6.103515625e-05 Z" stroke="none" fill="#030202"/>
    </g>
    <g id="Ellipse_4" data-name="Ellipse 4" transform="translate(568 206)" fill="#0bf" stroke="#030202" stroke-width="50">
      <ellipse cx="102.5" cy="97.5" rx="102.5" ry="97.5" stroke="none"/>
      <ellipse cx="102.5" cy="97.5" rx="77.5" ry="72.5" fill="none"/>
    </g>
  </g>
</svg>
